<?xml version="1.0"?>
<svg xmlns="http://www.w3.org/2000/svg" width="196" height="196" fill="none" viewBox="0 0 80 24"><g clip-path="url(#a)"><path d="M39.66 9.942c.51-.452.762-1.053.762-1.807 0-.574-.154-1.037-.463-1.401-.31-.36-.758-.659-1.346-.896a1.75 1.75 0 0 0 .558-.371c.185-.176.34-.398.464-.67s.184-.567.184-.888c0-.295-.06-.567-.18-.816a1.779 1.779 0 0 0-.547-.65c-.245-.184-.57-.326-.969-.433-.399-.107-.87-.157-1.409-.157h-5.961v8.759h6.775c.912 0 1.62-.226 2.13-.678l.003.008zM33.358 3.33h2.34c.58 0 1.01.068 1.28.21.276.138.412.417.412.842s-.132.7-.396.843c-.264.137-.69.206-1.285.206h-2.351v-2.1zm0 5.815V6.902h2.848c1.07 0 1.606.375 1.606 1.126 0 .75-.535 1.118-1.606 1.118h-2.848zm16.394-.29h-5.064V6.983h4.137V5.222h-4.137V3.614h4.959V1.857h-7.56v8.762h7.665V8.856zm1.666-4.866h3.161v6.63h2.597V3.99h3.157V1.857h-8.915v2.132z" fill="#4EF06A"/><path d="m35.764 16.484-2.652-3.288h-2.36v8.759h2.53v-5.072l2.35 2.936h.204l2.348-2.936v5.072h2.6v-8.76h-2.36l-2.66 3.29zm9.756-3.288-3.813 8.759h2.66l.716-1.776h3.746l.7 1.776h2.665l-3.802-8.76h-2.875.003zm.174 5.459 1.273-3.2 1.263 3.2h-2.54.004zm5.724-3.331h3.161v6.63h2.597v-6.63h3.157v-2.128h-8.915v2.128zm15.996 4.548a4.43 4.43 0 0 1-1.187.157c-.52 0-.984-.107-1.398-.325a2.5 2.5 0 0 1-.968-.88 2.223 2.223 0 0 1-.35-1.218c0-.501.131-.938.399-1.313a2.586 2.586 0 0 1 1.05-.865 3.292 3.292 0 0 1 1.407-.303c.565 0 1.055.092 1.47.268.417.18.84.402 1.265.674V13.74c-1.24-.444-2.351-.662-3.327-.662-.656 0-1.278.088-1.87.268-.59.18-1.118.456-1.578.831a3.847 3.847 0 0 0-1.082 1.413c-.256.566-.384 1.228-.384 1.983 0 .658.11 1.26.328 1.81a3.94 3.94 0 0 0 .983 1.44c.438.41.954.72 1.55.93.595.21 1.265.318 2.019.318.407 0 .799-.027 1.18-.073.38-.05.757-.13 1.13-.245a6.01 6.01 0 0 0 1.093-.455V19.08a7.967 7.967 0 0 1-.788.448 5.412 5.412 0 0 1-.942.344zm9.99-6.676v3.22h-3.912v-3.22h-2.6v8.759h2.6v-3.419h3.912v3.419H80v-8.76h-2.596z" fill="#fff"/><path d="M20.345.004 11.88 4.915l-5.11-2.97V5.94l5.103 2.979 8.47-4.946v16.032l3.392-1.975V1.995L20.345 0v.004z" fill="#4EF06A"/><path d="m16.957 9.961-5.102 2.932-8.467-4.919V.004L0 1.987l.023 16.01 10.129 5.922 3.421.015 3.384-1.975V9.96zm-3.391 9.969-1.707.98-8.471-4.927v-4.02l8.482 4.912 1.692-.984v4.035l.004.004z" fill="#4EF06A"/></g><defs><clipPath id="a"><path fill="#fff" d="M0 0h80v23.934H0z"/></clipPath></defs></svg>
